<svg width="122" height="56" viewBox="0 0 122 56" fill="none" xmlns="http://www.w3.org/2000/svg">
<path d="M8.93027 30.4052C4.67774 19.0298 4.78407 8.82384 20.6246 6.37866L27.1096 7.33547L32.2126 11.588L28.3854 15.8405V19.774L32.2126 22.4318L38.0598 16.2657L53.5814 31.0431L54.113 34.3388L49.3289 36.2524L48.0532 40.2923L45.1827 41.1428L44.5448 45.0763H40.505L39.7608 48.2657L37.4219 49.5415L26.3654 45.0763L8.93027 30.4052Z" fill="#BBF7D0"/>
<path d="M32.7574 11.9682C28.5049 6.43992 19.2453 3.93948 12.398 8.7991C5.5508 13.6587 4.35868 23.7395 9.73538 31.3156" stroke="#22C55E" stroke-width="1.27575"/>
<path d="M28.0664 16.1594L36.2525 7.86701L45.5017 6.16602L53.5814 10.0996L57.9402 17.7541V23.6012L54.0066 31.362L38.3787 16.5846L34.4452 20.5182L31.1495 21.9002L28.4917 19.5614L28.0664 16.1594Z" fill="#DCFCE7"/>
<path d="M32.7676 11.4353C38.1542 5.46902 46.9239 4.6855 53.1561 10.3122C59.3884 15.9389 59.1919 25.2895 53.8055 31.2557" stroke="#22C55E" stroke-width="1.27575"/>
<path d="M10.0644 31.681L8.20049 34.0161C7.09861 35.3965 7.32444 37.4089 8.7049 38.5108C10.0854 39.6126 12.0977 39.3868 13.1996 38.0064L15.0635 35.6713C16.1653 34.2908 15.9395 32.2785 14.559 31.1766C13.1786 30.0747 11.1663 30.3005 10.0644 31.681Z" fill="#DCFCE7" stroke="#22C55E" stroke-width="1.27575"/>
<path d="M15.9596 36.4957L14.0957 38.8308C12.9938 40.2112 13.2196 42.2236 14.6001 43.3255C15.9806 44.4273 17.9929 44.2015 19.0948 42.8211L20.9587 40.486C22.0605 39.1055 21.8347 37.0932 20.4543 35.9913C19.0738 34.8894 17.0615 35.1152 15.9596 36.4957Z" fill="#DCFCE7" stroke="#22C55E" stroke-width="1.27575"/>
<path d="M21.9419 41.2708L20.078 43.6059C18.9762 44.9864 19.202 46.9987 20.5825 48.1006C21.9629 49.2025 23.9753 48.9767 25.0771 47.5962L26.941 45.2611C28.0429 43.8806 27.8171 41.8683 26.4366 40.7664C25.0561 39.6645 23.0438 39.8904 21.9419 41.2708Z" fill="#DCFCE7" stroke="#22C55E" stroke-width="1.27575"/>
<path d="M27.9243 46.046L26.0604 48.3811C24.9585 49.7615 25.1844 51.7739 26.5648 52.8758C27.9453 53.9776 29.9576 53.7518 31.0595 52.3713L32.9234 50.0363C34.0253 48.6558 33.7994 46.6435 32.419 45.5416C31.0385 44.4397 29.0262 44.6655 27.9243 46.046Z" fill="#DCFCE7" stroke="#22C55E" stroke-width="1.27575"/>
<path d="M37.565 16.1895L52.8053 30.5366C54.0502 31.7084 54.1093 33.6675 52.9376 34.9122C51.7683 36.1542 49.8147 36.2163 48.569 35.0511L39.3487 26.4268" stroke="#22C55E" stroke-width="1.27575"/>
<path d="M39.3487 26.4268L48.3925 35.0665C49.6455 36.2636 49.6982 38.2472 48.5103 39.5089C47.3158 40.7781 45.3184 40.8376 44.0503 39.642L35.3618 31.4502" stroke="#22C55E" stroke-width="1.27575"/>
<path d="M35.3088 31.4233L44.3265 39.9532C45.5922 41.1505 45.6501 43.1464 44.4557 44.4149C43.2663 45.6785 41.2804 45.7464 40.0072 44.5669L30.5248 35.7821" stroke="#22C55E" stroke-width="1.27575"/>
<path d="M30.5248 35.7822L39.4387 44.2662C40.6846 45.4518 40.7386 47.4213 39.5596 48.6737C38.3762 49.9309 36.3975 49.9904 35.1402 48.8068L33.5015 47.264" stroke="#22C55E" stroke-width="1.27575"/>
<path d="M32.8505 11.3755L28.982 15.5804C27.6382 17.0411 27.7311 19.3127 29.1895 20.6589C30.6218 21.981 32.8471 21.924 34.2098 20.5301L38.3787 16.2659" stroke="#22C55E" stroke-width="1.27575"/>
<path d="M73.88 35.9602V19.1602H79.88C80.712 19.1602 81.432 19.2882 82.04 19.5442C82.664 19.7842 83.168 20.0962 83.552 20.4802C83.952 20.8642 84.248 21.2882 84.44 21.7522C84.632 22.2162 84.728 22.6722 84.728 23.1202C84.728 23.6322 84.616 24.1202 84.392 24.5842C84.168 25.0322 83.864 25.4322 83.48 25.7842C83.112 26.1202 82.68 26.4002 82.184 26.6242C81.688 26.8322 81.16 26.9362 80.6 26.9362V27.0322C80.952 27.0482 81.416 27.1042 81.992 27.2002C82.568 27.2962 83.128 27.4882 83.672 27.7762C84.216 28.0642 84.68 28.4802 85.064 29.0242C85.464 29.5682 85.664 30.2962 85.664 31.2082C85.664 31.7842 85.56 32.3602 85.352 32.9362C85.16 33.4962 84.84 34.0002 84.392 34.4482C83.944 34.8962 83.352 35.2642 82.616 35.5522C81.88 35.8242 80.976 35.9602 79.904 35.9602H73.88ZM76.064 34.9042H79.544C80.056 34.9042 80.536 34.8322 80.984 34.6882C81.448 34.5282 81.848 34.2962 82.184 33.9922C82.52 33.6882 82.784 33.3202 82.976 32.8882C83.184 32.4562 83.288 31.9602 83.288 31.4002C83.288 30.8882 83.192 30.4002 83 29.9362C82.824 29.4722 82.544 29.0642 82.16 28.7122C81.792 28.3602 81.32 28.0802 80.744 27.8722C80.168 27.6642 79.488 27.5602 78.704 27.5602H76.064V34.9042ZM76.064 26.5042H78.944C79.424 26.5042 79.872 26.4242 80.288 26.2642C80.72 26.1042 81.096 25.8802 81.416 25.5922C81.752 25.3042 82.008 24.9602 82.184 24.5602C82.376 24.1602 82.472 23.7282 82.472 23.2642C82.472 22.8962 82.408 22.5282 82.28 22.1602C82.152 21.7922 81.944 21.4642 81.656 21.1762C81.384 20.8882 81.024 20.6562 80.576 20.4802C80.144 20.3042 79.616 20.2162 78.992 20.2162H76.064V26.5042ZM89.063 23.9602H91.103V35.9602H89.063V23.9602ZM88.775 20.1682C88.775 19.8162 88.903 19.5122 89.159 19.2562C89.415 19.0002 89.719 18.8722 90.071 18.8722C90.423 18.8722 90.727 19.0002 90.983 19.2562C91.239 19.5122 91.367 19.8162 91.367 20.1682C91.367 20.5202 91.239 20.8242 90.983 21.0802C90.727 21.3362 90.423 21.4642 90.071 21.4642C89.719 21.4642 89.415 21.3362 89.159 21.0802C88.903 20.8242 88.775 20.5202 88.775 20.1682ZM95.6778 41.9602V23.9602H97.7178V25.9042H97.8138C98.4058 24.4322 99.6538 23.6962 101.558 23.6962C102.358 23.6962 103.094 23.8482 103.766 24.1522C104.438 24.4402 105.014 24.8642 105.494 25.4242C105.99 25.9682 106.374 26.6242 106.646 27.3922C106.918 28.1602 107.054 29.0242 107.054 29.9842C107.054 30.9282 106.918 31.7922 106.646 32.5762C106.374 33.3442 105.99 34.0002 105.494 34.5442C105.014 35.0882 104.438 35.5122 103.766 35.8162C103.094 36.1042 102.358 36.2482 101.558 36.2482C101.174 36.2482 100.79 36.2082 100.406 36.1282C100.038 36.0482 99.6858 35.9202 99.3498 35.7442C99.0138 35.5682 98.7098 35.3362 98.4378 35.0482C98.1818 34.7602 97.9738 34.4082 97.8138 33.9922H97.7178V41.9602H95.6778ZM97.7178 28.7602V30.8482C97.7178 31.5042 97.8058 32.0882 97.9818 32.6002C98.1738 33.1122 98.4218 33.5522 98.7258 33.9202C99.0298 34.2722 99.3818 34.5442 99.7818 34.7362C100.182 34.9122 100.606 35.0002 101.054 35.0002C101.55 35.0002 102.022 34.9122 102.47 34.7362C102.918 34.5442 103.31 34.2482 103.646 33.8482C103.998 33.4322 104.27 32.9042 104.462 32.2642C104.67 31.6242 104.774 30.8482 104.774 29.9362C104.774 29.0402 104.67 28.2722 104.462 27.6322C104.27 26.9922 104.006 26.4722 103.67 26.0722C103.334 25.6722 102.934 25.3842 102.47 25.2082C102.022 25.0162 101.55 24.9202 101.054 24.9202C100.59 24.9202 100.15 25.0242 99.7338 25.2322C99.3338 25.4242 98.9818 25.6962 98.6778 26.0482C98.3738 26.3842 98.1338 26.7922 97.9578 27.2722C97.7978 27.7362 97.7178 28.2322 97.7178 28.7602ZM114.578 23.6962C115.746 23.6962 116.65 23.8642 117.29 24.2002C117.93 24.5202 118.394 24.9442 118.682 25.4722C118.986 26.0002 119.162 26.6082 119.21 27.2962C119.258 27.9842 119.282 28.6882 119.282 29.4082V35.9602H117.338V34.7842C116.874 35.2322 116.282 35.5922 115.562 35.8642C114.842 36.1202 114.122 36.2482 113.402 36.2482C112.714 36.2482 112.106 36.1282 111.578 35.8882C111.05 35.6482 110.61 35.3362 110.258 34.9522C109.906 34.5682 109.642 34.1362 109.466 33.6562C109.29 33.1762 109.202 32.6882 109.202 32.1922C109.202 31.6802 109.298 31.1682 109.49 30.6562C109.682 30.1442 109.97 29.6882 110.354 29.2882C110.738 28.8722 111.21 28.5362 111.77 28.2802C112.33 28.0242 112.97 27.8962 113.69 27.8962C114.41 27.8962 115.09 28.0402 115.73 28.3282C116.386 28.6002 116.922 28.9922 117.338 29.5042V28.4722C117.338 27.1602 117.138 26.1842 116.738 25.5442C116.354 24.9042 115.642 24.5842 114.602 24.5842C114.154 24.5842 113.762 24.6402 113.426 24.7522C113.09 24.8642 112.786 25.0242 112.514 25.2322C112.258 25.4242 112.018 25.6722 111.794 25.9762C111.57 26.2642 111.346 26.5922 111.122 26.9602L109.874 25.7122C110.098 25.4722 110.33 25.2322 110.57 24.9922C110.826 24.7522 111.13 24.5362 111.482 24.3442C111.85 24.1522 112.282 24.0002 112.778 23.8882C113.274 23.7602 113.874 23.6962 114.578 23.6962ZM117.338 31.2082C117.258 31.0162 117.138 30.7922 116.978 30.5362C116.834 30.2802 116.642 30.0322 116.402 29.7922C116.162 29.5522 115.874 29.3522 115.538 29.1922C115.202 29.0162 114.802 28.9282 114.338 28.9282C113.874 28.9282 113.45 29.0242 113.066 29.2162C112.682 29.3922 112.354 29.6322 112.082 29.9362C111.826 30.2242 111.626 30.5682 111.482 30.9682C111.338 31.3682 111.266 31.7842 111.266 32.2162C111.266 32.7282 111.354 33.1762 111.53 33.5602C111.722 33.9282 111.962 34.2482 112.25 34.5202C112.538 34.7762 112.858 34.9682 113.21 35.0962C113.562 35.2242 113.898 35.2882 114.218 35.2882C114.522 35.2882 114.826 35.2322 115.13 35.1202C115.45 35.0082 115.746 34.8562 116.018 34.6642C116.306 34.4562 116.562 34.2162 116.786 33.9442C117.01 33.6722 117.194 33.3762 117.338 33.0562V31.2082Z" fill="#14532D"/>
</svg>
